<svg width="116" height="47" viewBox="0 0 116 47" fill="none" xmlns="http://www.w3.org/2000/svg">
<rect x="0.5" y="0.5" width="115" height="46" rx="9.5" fill="white" stroke="#353535"/>
<path d="M65.497 34.997C64.1401 36.3162 62.6586 36.1079 61.2325 35.483C59.7233 34.8442 58.3388 34.8164 56.7465 35.483C54.7527 36.344 53.7004 36.0941 52.5097 34.997C45.7529 28.0117 46.7498 17.3742 54.4204 16.9854C56.2896 17.0826 57.5911 18.013 58.6849 18.0963C60.3187 17.763 61.8833 16.8048 63.6278 16.9298C65.7186 17.0965 67.297 17.9297 68.3354 19.4295C64.0155 22.0264 65.0401 27.734 69 29.331C68.2108 31.4141 67.1862 33.4833 65.4832 35.0109L65.497 34.997ZM58.5464 16.902C58.3388 13.8052 60.8448 11.25 63.7248 11C64.1263 14.5829 60.4848 17.2492 58.5464 16.902Z" fill="black"/>
</svg>
